<svg xmlns="http://www.w3.org/2000/svg" viewBox="0 0 246 246" width="246" height="246"><g transform="translate(13.0,0.0)"><ns0:path xmlns:ns0="http://www.w3.org/2000/svg" d="M91.3627 57.1562C128.761 57.1562 153.693 72.5993 153.693 104.044C153.693 135.674 128.761 151.117 91.3627 151.117H45.4057V187.399H0.00695801V57.1562H91.3627ZM87.6414 120.789C99.3632 120.789 107.736 116.696 107.736 105.16C107.736 93.6241 99.3632 89.7168 87.6414 89.7168H45.4057V120.789H87.6414Z" fill="#FF0000" />
<ns0:path xmlns:ns0="http://www.w3.org/2000/svg" d="M88.2986 24.542L0.0313721 24.542C0.0313721 24.542 108.311 -22.0915 174.326 13.7935C240.34 49.6785 214.194 151.158 214.194 151.158C214.194 151.158 213.752 24.5422 88.2986 24.542Z" fill="#FF0000" />
<ns0:path xmlns:ns0="http://www.w3.org/2000/svg" d="M55.4823 220.876H0.00012207C0.00012207 220.876 75.4949 267.509 141.509 231.624C207.524 195.739 181.377 93.7749 181.377 93.7749C181.377 93.7749 180.936 220.876 55.4823 220.876Z" fill="#FF0000" />
</g></svg>